<?xml version="1.0" encoding="utf-8"?>
<!-- Generator: Adobe Illustrator 21.0.0, SVG Export Plug-In . SVG Version: 6.00 Build 0)  -->
<svg version="1.1" id="Layer_1" xmlns="http://www.w3.org/2000/svg" xmlns:xlink="http://www.w3.org/1999/xlink" x="0px" y="0px"
	 viewBox="0 0 288 288" style="enable-background:new 0 0 288 288;" xml:space="preserve">
<style type="text/css">
	.st0{fill:url(#SVGID_1_);}
	.st1{fill:url(#SVGID_2_);}
	.st2{fill:#FFFFFF;}
	.st3{fill:none;stroke:#FFFFFF;stroke-width:0.75;stroke-miterlimit:10;}
	.st4{font-family:'Papyrus-Regular';}
	.st5{font-size:14px;}
	.st6{fill:none;stroke:#000000;stroke-width:0.75;stroke-miterlimit:10;}
	.st7{font-size:18px;}
</style>
<linearGradient id="SVGID_1_" gradientUnits="userSpaceOnUse" x1="88.403" y1="111.3708" x2="233.7039" y2="111.3708" gradientTransform="matrix(1 -5.857635e-03 5.857635e-03 1 -0.6499 0.8454)">
	<stop  offset="0" style="stop-color:#0D0E19"/>
	<stop  offset="0.6022" style="stop-color:#20222A"/>
	<stop  offset="0.8398" style="stop-color:#3E4151"/>
	<stop  offset="1" style="stop-color:#4E5266"/>
</linearGradient>
<path class="st0" d="M143.6,50.9c0,0,8.2,11,27.2,14.2c18.2,3,23.6-4,23.6-4s14.1,75.1-50.1,110.8C79.7,136.9,92.9,61.7,92.9,61.7
	s5.5,6.9,23.7,3.7C135.6,62,143.6,50.9,143.6,50.9z"/>
<linearGradient id="SVGID_2_" gradientUnits="userSpaceOnUse" x1="108.3181" y1="111.3708" x2="281.0076" y2="111.3708" gradientTransform="matrix(1 -5.857635e-03 5.857635e-03 1 -0.6499 0.8454)">
	<stop  offset="0" style="stop-color:#0D0E19"/>
	<stop  offset="0.6022" style="stop-color:#20222A"/>
	<stop  offset="0.8398" style="stop-color:#3E4151"/>
	<stop  offset="1" style="stop-color:#4E5266"/>
</linearGradient>
<path class="st1" d="M194.5,61.1c0,0-5.4,7-23.6,4c-19-3.1-27.2-14.2-27.2-14.2s-0.1,0.1-0.3,0.3l0.7,120.4c0.1,0,0.2,0.1,0.3,0.1
	C208.6,136.1,194.5,61.1,194.5,61.1z"/>
<rect x="124.2" y="85.2" transform="matrix(1 -5.857635e-03 5.857635e-03 1 -0.643 0.7422)" class="st2" width="4.4" height="49.9"/>
<rect x="155.8" y="85" transform="matrix(1 -5.857635e-03 5.857635e-03 1 -0.6414 0.9274)" class="st2" width="4.4" height="49.9"/>
<path class="st2" d="M160,100.6c0.1-0.1,0.2-0.1,0.2-0.1l0,0c6.7-5.5,8.9-10.5,9.2-18.2c0.4-9.5-4.1-13.5-4.1-13.5
	c7.3,23.2-31.6,31-51.8,47.6c-0.1,0.1-0.2,0.1-0.2,0.1l0,0c-6.7,5.5-8.9,10.5-9.2,18.2c-0.4,9.5,4.1,13.5,4.1,13.5
	C100.9,125,139.8,117.2,160,100.6z"/>
<g>
	<path class="st2" d="M114.4,117.2c-0.1,0.1-0.2,0.1-0.2,0.1l0,0c-6.8,5.4-9,10.3-9.4,18.1c-0.5,9.5,3.9,13.5,3.9,13.5
		c-11.8-27.8,26-36.4,46.4-48.7c20.3-12.3,11.7-29.9,11.7-29.9C173.8,93.7,134.8,100.9,114.4,117.2z"/>
</g>
<text transform="matrix(1.0205 3.868583e-04 3.868582e-04 1 128.7057 148.9705)" class="st3 st4 st5">FCIH</text>
<text transform="matrix(1 0 0 1 80.1667 177.327)" class="st6 st4 st7">FREE COURSES</text>
</svg>
